<?xml version="1.0" encoding="UTF-8"?><svg id="Layer_2" xmlns="http://www.w3.org/2000/svg" viewBox="0 0 400 600"><defs><style>.cls-1{fill:none;stroke:#e2dddb;stroke-miterlimit:10;stroke-width:3px;}.cls-2{fill:#005a8c;}.cls-3{fill:#008cbd;}.cls-4{fill:#bab7b6;}.cls-5{fill:#d63c3c;}.cls-6{fill:#e2dddb;}.cls-7{fill:#0c0024;}.cls-8{fill:#320046;}.cls-9{fill:#531b6c;}</style></defs><g id="Layer_1-2"><g><g><rect class="cls-8" x="0" y="558.87" width="400" height="41.13" rx="20.57" ry="20.57" transform="translate(400 1158.87) rotate(-180)"/><g><rect class="cls-8" x="31.34" y="482.01" width="86.55" height="51.74"/><rect class="cls-8" x="49.21" y="524.85" width="4.5" height="38.16"/><rect class="cls-8" x="95.52" y="524.85" width="4.5" height="38.16"/></g><g><circle class="cls-8" cx="155.91" cy="273.08" r="13.85"/><circle class="cls-8" cx="215.17" cy="273.08" r="13.85"/><circle class="cls-8" cx="201.32" cy="284.8" r="19.96"/><circle class="cls-8" cx="242.76" cy="272.73" r="20.47"/><circle class="cls-8" cx="187.01" cy="261.24" r="25.42"/></g><g><circle class="cls-8" cx="13.85" cy="37.25" r="13.85"/><circle class="cls-8" cx="73.11" cy="37.25" r="13.85"/><circle class="cls-8" cx="59.26" cy="48.97" r="19.96"/><circle class="cls-8" cx="100.7" cy="36.9" r="20.47"/><circle class="cls-8" cx="44.95" cy="25.42" r="25.42"/></g><g><circle class="cls-8" cx="295.48" cy="46.95" r="13.85"/><circle class="cls-8" cx="363.09" cy="53.96" r="19.96"/><circle class="cls-8" cx="331.48" cy="48.97" r="25.42"/></g><g><circle class="cls-8" cx="177.8" cy="387.57" r="13.85"/><circle class="cls-8" cx="64.55" cy="381.96" r="13.85"/><circle class="cls-8" cx="118.54" cy="373.71" r="13.85"/><circle class="cls-8" cx="132.39" cy="361.99" r="19.96"/><circle class="cls-8" cx="90.95" cy="374.07" r="20.47"/><circle class="cls-8" cx="146.7" cy="385.55" r="25.42"/></g></g><g><line class="cls-1" x1="361.2" y1="49.46" x2="361.2" y2="573.21"/><g><polygon class="cls-6" points="260.62 424.64 297.34 424.64 297.34 408.57 260.62 414.08 260.62 424.64"/><path class="cls-7" d="M278.27,341.24c14.08,0,14.08-16.29,14.08-26.06h-64.69s-1.35,2.92-1.76,6.93h12.62c14.99,0,25.41,19.14,39.75,19.14Zm-1.63-17.81c2.29,0,4.14,1.85,4.14,4.14s-1.85,4.14-4.14,4.14-4.14-1.85-4.14-4.14,1.85-4.14,4.14-4.14Z"/><path class="cls-5" d="M206.77,422.36c0-19.07-15.46-34.53-34.53-34.53h-16.29c9.39,9.39,14.66,22.12,14.66,35.39v51.04c0,17.61,13.19,32.14,30.23,34.26l5.93-17.34v-68.81Z"/><path class="cls-5" d="M258.43,379.9h47.91l-.49-64.72h-13.5c0,9.77,0,26.06-14.08,26.06s-24.76-19.14-39.75-19.14h-12.62c-.32,3.08-.08,6.8,1.76,10.34,4.24,8.14,29,12.71,12.75,60.33,2.63-7.7,9.87-12.88,18.01-12.88Z"/><path class="cls-7" d="M297.34,560.89c0,2.49-2.01,4.5-4.5,4.5s-4.5,2.01-4.5,4.5,2.01,4.5,4.5,4.5h37.59l4.5,4.5v-4.5l4.5,4.5v-4.5l4.5,4.5v-7.65c0-3.23-2.62-5.85-5.85-5.85h-27.24c-2.49,0-4.5-2.01-4.5-4.5v-5.68h-9v5.68Z"/><path class="cls-7" d="M176.71,565.39h-27.17c-3.23,0-5.85,2.62-5.85,5.85v7.65l4.5-4.5v4.5l4.5-4.5v4.5l4.5-4.5h37.59c2.49,0,4.5-2.01,4.5-4.5h0c0-2.49-2.01-4.5-4.5-4.5h0c-2.2,0-3.73-2.17-3-4.24l2.1-5.94h-9l-2.08,5.87c-.91,2.58-3.35,4.31-6.09,4.31Z"/><path class="cls-6" d="M306.34,407.21v34.37h9.41c5.19,0,10.24-1.65,14.43-4.71l22.11-16.14v-20.42l-45.95,6.9Z"/><path class="cls-6" d="M243.16,424.64h1.81c5.34,0,9.67-4.33,9.67-9.67h0l-7.42,1.11,7.42-1.11v0l5.98-.9v0l36.72-5.51v0l54.95-8.25v-20.42h-93.86c-8.14,0-15.38,5.18-18.01,12.88l-6.93,20.27v1.92c0,5.34,4.33,9.67,9.67,9.67Z"/><path class="cls-3" d="M297.34,408.57v16.08h-36.72v-10.57l-5.98,.9c0,5.34-4.33,9.67-9.67,9.67h-1.81c-5.34,0-9.67-4.33-9.67-9.67v-1.92l-26.71,78.12-5.93,17.34-15.97,46.69h49.46l20.57-46.41,6.43,46.41h45v-147.99l-9,1.35Z"/><path class="cls-6" d="M321.49,307.36h0c0-4.32-3.5-7.82-7.82-7.82s-7.82,3.5-7.82,7.82v7.82h7.82c4.32,0,7.82-3.5,7.82-7.82Z"/><path class="cls-6" d="M279.78,307.36c0-4.32-3.5-7.82-7.82-7.82s-7.82,3.5-7.82,7.82h0c0,4.32,3.5,7.82,7.82,7.82h7.82v-7.82Z"/><path class="cls-5" d="M364.8,379.9h-12.51v20.42h12.51c4.37,0,7.91-3.54,7.91-7.91v-4.6c0-4.37-3.54-7.91-7.91-7.91h0Z"/><path class="cls-5" d="M352.29,420.73h12.51c4.37,0,7.91-3.54,7.91-7.91v-4.6c0-4.37-3.54-7.91-7.91-7.91h-12.51v20.42Z"/><circle class="cls-3" cx="276.64" cy="327.57" r="4.14"/><path class="cls-4" d="M247.21,416.09h7.35c.04-.37,.07-.74,.07-1.11l-7.42,1.11Z"/><polygon class="cls-4" points="297.34 416.09 297.34 408.57 260.62 414.08 260.62 416.09 297.34 416.09"/><polygon class="cls-2" points="297.34 408.57 297.34 416.09 306.34 416.09 306.34 407.21 297.34 408.57"/><path class="cls-2" d="M260.62,414.08l-2.98,.45-3.01,.45c0,.38-.03,.75-.07,1.11h6.05v-2.01Z"/><polygon class="cls-4" points="254.64 414.97 254.64 414.97 257.64 414.52 254.64 414.97"/><g><path class="cls-7" d="M176.71,493.85h29.15l.91-2.68v-9.16h-35.28c.99,4.31,2.79,8.31,5.22,11.84Z"/><rect class="cls-7" x="170.61" y="455.51" width="36.16" height="11.84"/><rect class="cls-7" x="170.61" y="429" width="36.16" height="11.84"/><path class="cls-7" d="M166.11,402.5c1.71,3.77,2.96,7.74,3.7,11.84h36.02c-1.03-4.32-2.87-8.32-5.35-11.84h-34.37Z"/></g><path class="cls-4" d="M306.34,416.09v-8.87l45.95-6.9-25.42,12.82c-3.85,1.94-8.1,2.95-12.42,2.95h-8.12Z"/><rect class="cls-2" x="260.62" y="428.77" width="36.72" height="7.38"/></g></g><g><rect class="cls-6" x="145.51" y="517.91" width="20.8" height="20.8"/><polygon class="cls-9" points="155.9 536.99 153.31 536.99 148.24 526.86 150.84 525.56 154.61 533.1 161.35 519.62 163.94 520.92 155.9 536.99"/></g><g><rect class="cls-6" x="379.2" y="314.36" width="20.8" height="20.8"/><polygon class="cls-9" points="389.59 333.44 386.99 333.44 381.93 323.31 384.52 322.01 388.29 329.55 395.03 316.07 397.63 317.37 389.59 333.44"/></g><g><rect class="cls-6" x="0" y="89.13" width="20.8" height="20.8"/><polygon class="cls-9" points="10.39 108.22 7.8 108.22 2.73 98.08 5.33 96.78 9.09 104.32 15.83 90.84 18.43 92.14 10.39 108.22"/></g><g><rect class="cls-6" x="22.27" y="429.47" width="20.8" height="20.8"/><polygon class="cls-9" points="32.67 448.56 30.07 448.56 25 438.42 27.6 437.13 31.37 444.66 38.11 431.18 40.7 432.48 32.67 448.56"/></g><polygon class="cls-3" points="247.21 0 250.28 9.43 260.2 9.43 252.17 15.26 255.24 24.7 247.21 18.87 239.19 24.7 242.25 15.26 234.23 9.43 244.15 9.43 247.21 0"/><polygon class="cls-3" points="22.27 203.71 25.34 213.14 35.26 213.14 27.23 218.97 30.3 228.41 22.27 222.58 14.25 228.41 17.31 218.97 9.29 213.14 19.21 213.14 22.27 203.71"/><polygon class="cls-3" points="211.05 319.52 214.11 328.95 224.03 328.95 216.01 334.78 219.07 344.22 211.05 338.39 203.02 344.22 206.09 334.78 198.06 328.95 207.98 328.95 211.05 319.52"/><polygon class="cls-3" points="100.02 432.46 103.09 441.9 113.01 441.9 104.98 447.73 108.05 457.16 100.02 451.33 92 457.16 95.06 447.73 87.04 441.9 96.96 441.9 100.02 432.46"/><g><path class="cls-6" d="M49.33,308.72l-5.14-16.56h4.54l3.29,11.95h.05l3.26-11.98,4.56,.02-5.18,16.56h-5.38Z"/><path class="cls-6" d="M62.03,302.28c0-3.91,2.18-6.65,6.46-6.65s6.46,2.74,6.46,6.65-2.18,6.72-6.46,6.72-6.46-2.81-6.46-6.72Zm9.14-.02c0-1.78-.91-2.59-2.66-2.59s-2.71,.82-2.71,2.59,.91,2.71,2.69,2.71,2.69-.86,2.69-2.71Z"/><path class="cls-6" d="M80.36,304.39v-4.51l-1.99,.14v-4.03l2.09,.12,.05-2.83h3.96l-.07,2.86,3.43-.17v4.06l-3.41-.17v3.55c0,.98,.43,1.39,1.03,1.39,.72,0,1.44-.5,1.82-.91h.17l.91,3.65c-.79,.89-2.5,1.46-3.96,1.46-2.33,0-4.03-1.2-4.03-4.61Z"/><path class="cls-6" d="M93.18,308.72v-8.47h-1.58v-4.3h5.64v12.77h-4.06Zm-.5-15.75c0-1.2,.7-2.06,2.35-2.06s2.38,.86,2.38,2.04-.74,2.06-2.38,2.06-2.35-.89-2.35-2.04Z"/><path class="cls-6" d="M102.37,308.72v-8.23l-.31-4.54h3.82l.24,3.5h.17c.41-2.98,2.35-3.82,4.1-3.82,2.47,0,3.96,1.56,3.96,4.42v8.66h-4.06v-7.27c0-1.08-.46-1.73-1.58-1.73-1.27,0-2.28,.86-2.28,1.99v7.01h-4.06Z"/><path class="cls-6" d="M127.69,305.59c2.62,0,4.13,1.08,4.13,3.43s-1.71,4.61-7.11,4.61c-4.06,0-6.29-.67-6.29-2.93,0-1.32,1.06-2.09,2.66-2.16v-.26c-1.85-.17-2.54-1.15-2.54-2.23,0-1.54,1.18-2.11,2.59-2.28-1.37-.62-2.04-2.06-2.04-3.6,0-2.88,2.33-4.54,5.76-4.54,.86,0,2.28,.17,3.24,.53l3.6-1.32v3.67l-2.57-.1-.05,.22c1.2,.29,1.61,1.22,1.61,2.11,0,2.76-2.74,3.94-5.66,3.91-1.08,0-2.02-.12-2.76-.41-.29,.14-.5,.46-.5,.77,0,.34,.38,.58,1.13,.58h4.8Zm.24,3.53c0-.6-.67-.62-1.39-.62h-4.32c-.19,.05-.46,.19-.46,.46,0,.98,1.25,1.18,2.88,1.18,1.97,0,3.29-.34,3.29-1.01Zm-5.45-8.83c0,.94,.89,1.27,2.35,1.27,1.13,0,2.42-.22,2.42-1.27,0-.94-1.13-1.25-2.42-1.25-1.37,0-2.35,.29-2.35,1.25Z"/><path class="cls-6" d="M143.48,308.72v-16.56h4.03v3.26c0,.77-.19,2.78-.41,4.06h.26c.43-3,2.35-3.84,4.1-3.84,2.47,0,3.96,1.58,3.96,4.42v8.66h-4.06v-7.27c0-1.08-.46-1.73-1.58-1.73-1.27,0-2.28,.86-2.28,1.99v7.01h-4.03Z"/><path class="cls-6" d="M159.68,305.02c0-2.21,1.68-3.53,4.46-3.53,2.23,0,3.19,1.03,3.55,1.87h.07v-1.82c0-1.2-.86-1.85-2.23-1.85-1.22,0-1.94,.36-1.94,1.49h-.19l-3.41-.6c-.26-3.12,1.92-4.9,5.86-4.9,3.46,0,5.9,1.42,5.9,5.26v3.82l.38,3.96h-3.89l-.31-2.78h-.17c-.38,1.94-1.9,3.05-4.3,3.05-2.28-.05-3.79-1.39-3.79-3.96Zm8.21-.38c0-.67-.96-.98-2.14-.98s-2.11,.29-2.11,1.06,.89,.98,2.11,.98c1.08,0,2.14-.31,2.14-1.06Z"/><path class="cls-6" d="M175.86,305.35l2.66-1.51h.17c.22,1.25,1.44,1.61,3,1.61,1.2,0,2.3-.19,2.3-1.03,0-.72-1.51-.74-2.88-.86-2.45-.19-4.87-.72-4.87-3.77,0-2.62,2.06-4.15,5.52-4.15,2.9,0,5.38,.74,5.74,3.36l-2.62,1.82h-.17c-.1-1.27-1.46-1.63-2.83-1.63-1.18,0-1.92,.34-1.92,.89,0,.77,1.3,.86,2.71,.96,2.4,.17,5.04,.58,5.04,3.5s-2.69,4.46-5.81,4.46-5.59-.6-6.05-3.65Z"/><path class="cls-6" d="M43.17,337.51v-8.23l-.31-4.54h3.82l.24,3.5h.17c.41-2.98,2.35-3.82,4.1-3.82,2.47,0,3.96,1.56,3.96,4.42v8.66h-4.06v-7.27c0-1.08-.46-1.73-1.58-1.73-1.27,0-2.28,.86-2.28,1.99v7.01h-4.06Z"/><path class="cls-6" d="M70.03,332.33l2.06,2.71c-1.2,1.63-3.02,2.76-6.07,2.76-4.1,0-6.67-2.45-6.67-6.62s2.74-6.7,6.53-6.7c4.01,0,6.22,2.09,6.22,6.07,0,.38-.02,.79-.07,1.2h-8.69c.17,1.49,1.51,2.09,3.02,2.09s2.69-.43,3.48-1.51h.19Zm-6.67-2.3l4.82-.07c-.02-1.1-.86-1.92-2.33-1.92-1.25,0-2.3,.58-2.5,1.99Z"/><path class="cls-6" d="M78.84,337.51l-4.22-12.77h4.27l2.38,8.59,2.4-8.59h4.25l-4.22,12.77h-4.85Z"/><path class="cls-6" d="M101.16,332.33l2.06,2.71c-1.2,1.63-3.02,2.76-6.07,2.76-4.1,0-6.67-2.45-6.67-6.62s2.74-6.7,6.53-6.7c4.01,0,6.22,2.09,6.22,6.07,0,.38-.02,.79-.07,1.2h-8.69c.17,1.49,1.51,2.09,3.02,2.09s2.69-.43,3.48-1.51h.19Zm-6.67-2.3l4.82-.07c-.02-1.1-.86-1.92-2.33-1.92-1.25,0-2.3,.58-2.5,1.99Z"/><path class="cls-6" d="M107.61,337.51v-8.23l-.31-4.54h3.86l.22,3.86h.31c.24-2.98,1.54-4.06,3.67-4.06,.24,0,.34,.05,.36,.05l-.05,4.92c-.36-.1-.74-.17-1.15-.17-1.8,0-2.83,.62-2.83,1.99v6.17h-4.08Z"/><path class="cls-6" d="M126.96,337.54l.22-4.68v-11.91h4.06v3.82c0,.94-.1,2.26-.34,3.74h.29c.5-2.69,2.26-4.06,4.3-4.06,2.78,0,4.66,1.8,4.66,6.5s-2.28,6.79-4.61,6.79c-2.16,0-3.86-1.03-4.13-3.98h-.34l-.17,3.74-3.94,.02Zm9.14-6.5c0-1.8-.98-2.35-2.42-2.35-1.82,0-2.59,.74-2.59,2.38,0,1.51,.82,2.38,2.62,2.38,1.44,0,2.42-.62,2.4-2.4Z"/><path class="cls-6" d="M154.65,332.33l2.06,2.71c-1.2,1.63-3.02,2.76-6.07,2.76-4.1,0-6.67-2.45-6.67-6.62s2.74-6.7,6.53-6.7c4.01,0,6.22,2.09,6.22,6.07,0,.38-.02,.79-.07,1.2h-8.69c.17,1.49,1.51,2.09,3.02,2.09s2.69-.43,3.48-1.51h.19Zm-6.67-2.3l4.82-.07c-.02-1.1-.86-1.92-2.33-1.92-1.25,0-2.3,.58-2.5,1.99Z"/><path class="cls-6" d="M171.24,332.33l2.06,2.71c-1.2,1.63-3.02,2.76-6.07,2.76-4.1,0-6.67-2.45-6.67-6.62s2.74-6.7,6.53-6.7c4.01,0,6.22,2.09,6.22,6.07,0,.38-.02,.79-.07,1.2h-8.69c.17,1.49,1.51,2.09,3.02,2.09s2.69-.43,3.48-1.51h.19Zm-6.67-2.3l4.82-.07c-.02-1.1-.86-1.92-2.33-1.92-1.25,0-2.3,.58-2.5,1.99Z"/><path class="cls-6" d="M177.5,337.51v-8.23l-.31-4.54h3.82l.24,3.5h.17c.41-2.98,2.35-3.82,4.1-3.82,2.47,0,3.96,1.56,3.96,4.42v8.66h-4.06v-7.27c0-1.08-.46-1.73-1.58-1.73-1.27,0-2.28,.86-2.28,1.99v7.01h-4.06Z"/><path class="cls-6" d="M66.6,366.32v-16.56h11.38v4.37h-7.2v2.26l5.9-.36v3.41l-5.9-.24v2.76h7.34v4.37h-11.52Z"/><path class="cls-6" d="M93,366.32l-.84-3.41h-5.16l-.84,3.41h-4.42l4.94-16.56h5.81l4.9,16.56h-4.39Zm-3.1-12.07h-.62l-1.34,4.94h3.29l-1.32-4.94Z"/><path class="cls-6" d="M99.96,361.76l3.17-1.85h.22c.31,1.94,1.94,2.62,3.89,2.62,1.49,0,2.86-.5,2.86-1.66,0-.94-1.22-1.13-2.83-1.3-2.69-.31-6.53-.5-6.53-4.83,0-3.26,2.5-5.28,6.67-5.28,3.86,0,6.58,1.34,6.79,4.56l-2.93,1.73h-.24c-.17-1.56-1.61-2.21-3.43-2.21-1.58,0-2.66,.48-2.66,1.37,0,1.08,1.44,1.3,3,1.44,2.69,.26,6.41,.38,6.41,4.61,0,3.84-3.05,5.64-6.98,5.64-3.62,0-6.55-1.06-7.39-4.85Z"/><path class="cls-6" d="M118.85,366.32v-16.56h4.18v16.56h-4.18Z"/><path class="cls-6" d="M128.42,366.32v-16.56h11.38v4.37h-7.2v2.26l5.9-.36v3.41l-5.9-.24v2.76h7.34v4.37h-11.52Z"/><path class="cls-6" d="M144.62,366.32v-16.56h7.01c3.84,0,6.02,1.78,6.02,4.94,0,1.97-.96,3.79-3.14,4.49,1.25,.36,1.85,1.27,2.23,2.47l1.49,4.66h-4.51l-1.25-4.25c-.29-.89-.89-1.39-1.82-1.51l-1.87-.22v5.98h-4.15Zm4.15-9.14h2.33c1.42,0,2.35-.6,2.35-1.73s-1.08-1.56-2.38-1.56h-2.3v3.29Z"/><path class="cls-6" d="M163.12,360.68l-1.44-10.92h4.97l-1.44,10.92h-2.09Zm-1.32,3.38c0-1.44,.91-2.47,2.35-2.47s2.38,1.03,2.38,2.47-.94,2.42-2.38,2.42-2.35-1.01-2.35-2.42Z"/></g><g><circle class="cls-5" cx="332.34" cy="495.93" r="9.12"/><g><polygon class="cls-5" points="338.8 509.96 335.19 513.19 332.57 500.74 337.64 498.89 343.64 510.11 338.8 509.96"/><polygon class="cls-5" points="325.88 509.96 329.49 513.19 332.11 500.74 327.04 498.89 321.03 510.11 325.88 509.96"/></g></g><g><circle class="cls-5" cx="26.81" cy="362.41" r="9.12"/><g><polygon class="cls-5" points="33.27 376.45 29.65 379.68 27.03 367.22 32.11 365.37 38.11 376.6 33.27 376.45"/><polygon class="cls-5" points="20.35 376.45 23.96 379.68 26.58 367.22 21.5 365.37 15.5 376.6 20.35 376.45"/></g></g><g><circle class="cls-5" cx="381.93" cy="126.08" r="9.12"/><g><polygon class="cls-5" points="388.39 140.12 384.78 143.35 382.16 130.89 387.23 129.05 393.23 140.27 388.39 140.12"/><polygon class="cls-5" points="375.47 140.12 379.08 143.35 381.7 130.89 376.62 129.05 370.62 140.27 375.47 140.12"/></g></g><g><g><path class="cls-7" d="M50.76,154.87c-3.41,.52-6.01,3.23-6.47,6.57,.39,2.79,2.26,5.19,4.96,6.18l16.18,6c93.44-12.7,188.22-12.12,281.53,1.76,4.66,.69,8.83-2.94,8.83-7.65,0-3.23-2.01-6.12-5.04-7.24l-23.43-8.69c-91.85-11.8-184.93-10.78-276.56,3.06Z"/><path class="cls-3" d="M346.96,188.88c-100.39-14.93-202.48-14.48-302.77,1.35v9c100.28-15.83,202.38-16.28,302.77-1.35,4.66,.69,8.83-2.94,8.83-7.65v-9c0,4.71-4.18,8.34-8.83,7.65Z"/><path class="cls-6" d="M346.96,175.38c-93.31-13.88-188.09-14.46-281.53-1.76-7.09,.96-14.17,1.99-21.24,3.11v13.5c100.28-15.83,202.38-16.28,302.77-1.35,4.66,.69,8.83-2.94,8.83-7.65v-13.5c0,4.71-4.18,8.34-8.83,7.65Z"/><path class="cls-6" d="M346.96,197.88c-100.39-14.93-202.48-14.48-302.77,1.35v61.42c100.28-15.83,202.38-16.28,302.77-1.35,4.66,.69,8.83-2.94,8.83-7.65v-61.42c0,4.71-4.18,8.34-8.83,7.65Z"/><path class="cls-6" d="M346.96,268.3c-100.39-14.93-202.48-14.48-302.77,1.35v13.5c100.28-15.83,202.38-16.28,302.77-1.35,4.66,.69,8.83-2.94,8.83-7.65v-13.5c0,4.71-4.18,8.34-8.83,7.65Z"/><path class="cls-3" d="M346.96,259.3c-100.39-14.93-202.48-14.48-302.77,1.35v9c100.28-15.83,202.38-16.28,302.77-1.35,4.66,.69,8.83-2.94,8.83-7.65v-9c0,4.71-4.18,8.34-8.83,7.65Z"/><path class="cls-6" d="M44.21,162.51c0-.36,.03-.72,.08-1.07-.05-.35-.08-.7-.08-1.06v2.13Z"/><path class="cls-6" d="M50.76,48.45c-3.77,.57-6.55,3.83-6.55,7.64v13.5c0-3.81,2.78-7.07,6.55-7.64,101.12-15.28,204-14.94,305.04,1.01v-13.5c-101.04-15.95-203.92-16.29-305.04-1.01Z"/><path class="cls-3" d="M50.76,61.95c-3.77,.57-6.55,3.83-6.55,7.64v9c0-3.81,2.78-7.07,6.55-7.64,101.12-15.28,204-14.94,305.04,1.01v-9c-101.04-15.95-203.92-16.29-305.04-1.01Z"/><path class="cls-6" d="M50.76,70.95c-3.77,.57-6.55,3.83-6.55,7.64v61.42c0-3.81,2.78-7.07,6.55-7.64,101.12-15.28,204-14.94,305.04,1.01,0-20.47,0-40.95,0-61.42-101.04-15.95-203.92-16.29-305.04-1.01Z"/><path class="cls-3" d="M50.76,132.37c-3.77,.57-6.55,3.83-6.55,7.64v9c0-3.81,2.78-7.07,6.55-7.64,101.12-15.28,204-14.94,305.04,1.01v-9c-101.04-15.95-203.92-16.29-305.04-1.01Z"/><path class="cls-6" d="M50.76,141.37c-3.77,.57-6.55,3.83-6.55,7.64v11.37c0,.36,.03,.71,.08,1.06,.47-3.34,3.06-6.06,6.47-6.57,91.63-13.84,184.71-14.86,276.56-3.06,9.51,1.22,19,2.58,28.48,4.08v-13.5c-101.04-15.95-203.92-16.29-305.04-1.01Z"/></g><g><path class="cls-5" d="M90.54,113.55c0-3.66,0-7.32,0-10.97-3.71-7.4-7.42-14.78-11.12-22.14,4.48-.55,8.98-1.08,13.5-1.57,1.29,3.72,2.58,7.44,3.87,11.16,.1-.01,.2-.02,.3-.03,1.29-3.99,2.58-7.98,3.88-11.97,4.53-.45,9.06-.88,13.61-1.27-3.75,8.14-7.49,16.3-11.22,24.48v10.97c-4.28,.42-8.55,.87-12.81,1.34Z"/><path class="cls-5" d="M110.79,98.14c0-8.12,4.79-14.32,13.76-15.01,8.97-.68,13.81,4.79,13.81,12.91,0,8.14-4.84,14.24-13.81,14.92-8.97,.69-13.76-4.68-13.76-12.82Zm16.61-1.36c0-1.8-.8-2.74-2.86-2.58-2.11,.16-2.96,1.23-2.96,3.02,0,1.85,.85,2.77,2.91,2.62,2.11-.16,2.91-1.21,2.91-3.06Z"/><path class="cls-5" d="M140.82,101.18c0-6.2,0-12.4,0-18.61,4.03-.24,8.06-.45,12.09-.65v13.77c0,1.5,.3,2.33,1.31,2.28,1.46-.07,2.02-1.49,2.02-3.98,0-4.07,0-8.15,0-12.22,4.04-.18,8.08-.33,12.13-.46v15.61c.44,3.68,.88,7.35,1.31,11.03-3.96,.12-7.92,.26-11.88,.43-.24-3.07-.47-6.13-.71-9.2-.12,0-.24,.01-.35,.02-.71,8.76-5.2,10.06-8.32,10.22-5.04,.26-7.61-3.22-7.61-8.26Z"/><path class="cls-5" d="M172.82,107.87c0-5.19,0-10.38,0-15.56-.34-3.7-.68-7.4-1.01-11.1,3.84-.11,7.69-.19,11.54-.26,.29,3.19,.57,6.38,.86,9.56,.32,0,.64-.01,.96-.01-.3-7.88,2.63-9.97,6.53-10,1.57-.01,2.08,.23,2.08,.23v13.07c-.61-.1-1.77-.24-2.89-.23-5.02,.05-5.93,1.82-5.93,4.26,0,3.26,0,6.52,0,9.78-4.05,.06-8.1,.15-12.15,.26Z"/><path class="cls-5" d="M226.81,73.44c4.74,.13,9.47,.29,14.21,.48-3.52,11.33-7.04,22.67-10.56,34.04-5.26-.16-10.52-.28-15.79-.36-3.53-11.52-7.06-23.03-10.59-34.52,4.74,.02,9.49,.07,14.23,.16,1.42,6.79,2.83,13.59,4.25,20.39,1.42-6.74,2.83-13.47,4.25-20.2Z"/><path class="cls-5" d="M239.45,94.91c0-8.12,4.85-13.7,13.88-13.22,9.02,.49,13.84,6.58,13.84,14.71,0,8.14-4.82,13.62-13.84,13.13-9.02-.48-13.88-6.48-13.88-14.61Zm16.75,.8c0-1.8-.81-2.84-2.87-2.95-2.12-.11-2.97,.84-2.97,2.64,0,1.85,.86,2.89,2.92,3,2.12,.11,2.92-.84,2.92-2.68Z"/><path class="cls-5" d="M272.44,99.96c0-2.01,0-4.02,0-6.04-1.24,0-2.48-.01-3.71-.01,0-3.52,0-7.05,0-10.57,1.37,.19,2.74,.39,4.12,.59,.03-2.01,.07-4.02,.1-6.03,3.91,.29,7.82,.6,11.72,.93-.03,2.06-.07,4.12-.1,6.18,2.25,0,4.5,.03,6.74,.05,0,3.56,0,7.12,0,10.67-2.24-.34-4.49-.67-6.74-1v3.89c0,1.45,.6,2.35,1.75,2.45,1,.09,2.5-.83,3.4-1.64,.08,0,.17,.02,.25,.02,.88,2.89,1.76,5.78,2.64,8.67-1.79,2.48-5.64,3.72-10.24,3.33-6.91-.57-9.92-4.06-9.92-11.5Z"/><path class="cls-5" d="M316.17,102.25c1.47,2.72,2.93,5.44,4.39,8.16-1.82,2.42-5.67,4.34-12.26,3.61-9.81-1.07-14.76-7.14-14.76-15.53,0-9.67,6.29-13.23,14.22-12.36,7.63,.84,12.8,5.49,12.8,12.37,0,1.15-.15,2.38-.3,3.65-5.04-.62-10.11-1.2-15.18-1.75,.05,1.5,.99,2.8,4.36,3.17,3.17,.35,4.85-.25,6.28-1.37,.15,.02,.3,.04,.44,.05Zm-11.09-4.79c1.52,.15,3.04,.3,4.56,.45-.15-1.41-.94-2.25-2.18-2.39-1.09-.12-2.13,.42-2.38,1.94Z"/></g><g><path class="cls-5" d="M91.94,240.79v-34.42c5.41-.59,10.83-1.13,16.25-1.63,1.48,5.07,2.96,10.14,4.44,15.21,1.45-5.33,2.89-10.66,4.34-15.98,5.46-.45,10.92-.86,16.38-1.23v34.37c-4,.27-7.99,.56-11.98,.87v-15.91s-.07,0-.1,0c-1.53,5.44-3.06,10.89-4.59,16.34-2.69,.23-5.39,.46-8.08,.71-1.53-5.18-3.06-10.36-4.59-15.53-.03,0-.07,0-.1,0v15.96c-3.99,.39-7.98,.79-11.96,1.23Z"/><path class="cls-5" d="M136.15,230.04c0-4.59,3.65-6.82,8.74-7.11,4-.22,5.95,1.09,6.35,2.81,.08,0,.17,0,.25-.01v-2.99c0-1.5-.4-2.97-2.65-2.86-1.95,.1-2.85,.85-2.8,2.24-.17,0-.33,.02-.5,.03-3.07-.4-6.13-.78-9.19-1.15-.75-6.48,3.05-11.5,13.14-12.02,7.3-.37,13.35,2.81,13.35,10.59v4.69c.3,3.78,.6,7.56,.9,11.34-3.58,.13-7.17,.28-10.75,.45-.35-2.24-.7-4.49-1.05-6.73-.1,0-.2,0-.3,.01,0,5.19-3.1,7.53-7.85,7.79-5.35,.3-7.65-2.98-7.65-7.07Zm15.59-2.37c0-.75-.7-1.06-2-1-1.2,.06-1.95,.45-1.95,1.2,0,.8,.75,1.11,1.95,1.05,1.45-.07,2-.6,2-1.25Z"/><path class="cls-5" d="M169.05,225.23v-6.04c-1.23,.12-2.47,.25-3.7,.37v-10.57c1.37,.05,2.73,.11,4.1,.17,.03-2.01,.07-4.03,.1-6.04,3.9-.12,7.8-.22,11.71-.29-.03,2.06-.07,4.12-.1,6.19,2.25-.23,4.5-.44,6.75-.65v10.67c-2.25-.11-4.5-.2-6.75-.29v3.89c0,1.45,.6,2.28,1.75,2.26,1-.02,2.5-1.09,3.4-2,.08,0,.17,0,.25,0,.88,2.8,1.77,5.6,2.65,8.4-1.8,2.66-5.65,4.31-10.26,4.4-6.9,.15-9.9-3.03-9.9-10.47Z"/><path class="cls-5" d="M194.42,224.77v-6.04c-1.23,.09-2.47,.18-3.7,.28v-10.57c1.37,.09,2.74,.18,4.1,.27,.03-2.01,.07-4.02,.1-6.04,3.9-.02,7.81-.02,11.71,0-.03,2.06-.07,4.12-.1,6.18,2.25-.17,4.5-.33,6.75-.48v10.67c-2.25-.16-4.5-.32-6.75-.47v3.89c0,1.45,.6,2.3,1.75,2.31,1,0,2.5-1.02,3.4-1.91,.08,0,.17,0,.25,0,.88,2.82,1.77,5.64,2.65,8.46-1.8,2.62-5.65,4.16-10.26,4.14-6.9-.02-9.91-3.28-9.91-10.72Z"/><path class="cls-5" d="M238.34,223.6c1.48,2.6,2.97,5.21,4.45,7.81-1.85,2.57-5.75,4.79-12.4,4.58-9.9-.29-14.86-5.97-14.86-14.36,0-9.67,6.3-13.73,14.31-13.49,7.7,.23,12.95,4.46,12.95,11.35,0,1.15-.15,2.39-.3,3.68-5.12-.22-10.23-.4-15.35-.54,.05,1.5,1,2.72,4.4,2.82,3.2,.1,4.9-.63,6.35-1.87,.15,0,.3,.01,.45,.02Zm-11.2-3.91c1.53,.03,3.07,.05,4.6,.09-.15-1.4-.95-2.18-2.2-2.21-1.1-.03-2.15,.59-2.4,2.13Z"/><path class="cls-5" d="M245.54,235.97v-15.56c-.33-3.72-.67-7.45-1-11.17,3.8,.17,7.6,.36,11.4,.57,.28,3.21,.57,6.42,.85,9.63,.32,.02,.63,.04,.95,.05-.3-7.9,2.6-9.78,6.45-9.53,1.55,.1,2.05,.38,2.05,.38v13.07c-.6-.14-1.75-.36-2.85-.43-4.95-.31-5.85,1.39-5.85,3.84v9.78c-4-.23-8-.44-12-.62Z"/><path class="cls-5" d="M266.58,231.27c2.03-1.38,4.06-2.75,6.09-4.11,.12,0,.23,.02,.35,.03,1.25,1.79,2.75,2.34,6.49,2.64,1.55,.12,2.9-.01,2.9-.81,0-.8-2.1-1.12-4.04-1.37-5.24-.71-10.24-2.3-10.24-8.73,0-5.28,4.1-8.62,12.63-7.93,6.69,.54,11.83,2.88,12.27,7.81-2.03,1.16-4.06,2.32-6.09,3.49-.18-.02-.37-.03-.55-.05-.5-1.54-3.24-1.97-4.89-2.11-1.85-.15-2.35,.46-2.35,.86,0,1.3,3.39,1.37,5.04,1.56,5.49,.66,9.33,2.33,9.33,8.17,0,6.09-6.03,8.65-12.77,8.11-6.84-.55-11.78-1.74-14.18-7.53Z"/><path class="cls-5" d="M299.77,226.61c-1.41-7.17-2.83-14.35-4.24-21.52,4.17,.4,8.34,.83,12.51,1.28-1.39,6.88-2.79,13.77-4.18,20.65-1.36-.14-2.72-.28-4.09-.42Zm-4.19,7.22c0-3.64,2.44-6,6.18-5.62,3.74,.38,6.23,3.25,6.23,6.89,0,3.59-2.49,5.91-6.23,5.53-3.74-.38-6.18-3.21-6.18-6.8Z"/></g></g></g></g></svg>