<?xml version="1.0" encoding="UTF-8"?><svg id="Layer_2" xmlns="http://www.w3.org/2000/svg" viewBox="0 0 162.09 93.22"><defs><style>.cls-1{fill:#0c0024;}</style></defs><g id="Layer_1-2"><g><g><path class="cls-1" d="M91.46,71.3c0,12.46-10.29,21.91-24.01,21.91s-24.01-9.45-24.01-21.91,10.36-21.91,24.01-21.91,24.01,9.45,24.01,21.91Zm-33.18,0c0,5.53,3.99,9.66,9.17,9.66s9.24-4.2,9.24-9.66-3.99-9.59-9.24-9.59-9.17,4.2-9.17,9.59Z"/><path class="cls-1" d="M111.41,63.11v28.28h-14.21v-28.28h-4.27v-11.9h4.27v-9.73l14.21-2.1v11.83h4.27v11.9h-4.27Z"/><path class="cls-1" d="M142.42,93.22c-16.17,0-25.27-9.03-25.27-21.91s9.17-21.91,23.03-21.91c12.32,0,21.91,9.24,21.91,21.98v3.92h-29.75c1.12,5.04,4.83,7.07,10.5,7.07,5.11,0,8.47-1.61,11.48-3.92l7.63,8.19c-4.34,3.78-10.99,6.58-19.53,6.58Zm-9.87-26.39h14.7c-1.05-3.99-3.5-6.23-7.28-6.23s-6.37,2.24-7.42,6.23Z"/></g><polygon class="cls-1" points="36.89 0 54.89 0 36.52 91.39 12.94 91.39 0 27 18 27 24.68 64.39 36.89 0"/></g></g></svg>